<?xml version="1.0" encoding="UTF-8" standalone="no"?>
<!DOCTYPE svg PUBLIC "-//W3C//DTD SVG 1.1//EN" "http://www.w3.org/Graphics/SVG/1.1/DTD/svg11.dtd">
<svg width="100%" height="100%" viewBox="0 0 670 250" version="1.1" xmlns="http://www.w3.org/2000/svg" xmlns:xlink="http://www.w3.org/1999/xlink" xml:space="preserve" xmlns:serif="http://www.serif.com/" style="fill-rule:evenodd;clip-rule:evenodd;stroke-linejoin:round;stroke-miterlimit:2;">
    <g transform="matrix(1,0,0,1,-72.342651,-24.628652)">
        <g transform="matrix(1,0,0,1,-140.232301,-364.934684)">
            <g transform="matrix(0.809251,0,0,0.823476,99.091788,89.048221)">
                <path d="M244.496,364.935C254.724,365.66 254.6,366.659 272.706,377.139C318.874,403.863 324.033,406.869 325.37,408.601C329.509,413.96 325.43,425.327 313.726,419.097C311.449,417.885 250.829,382.165 248.594,381.262C243.151,379.063 241.713,381.082 228.784,388.964C227.309,389.863 219.669,395.043 209.79,400.986C206.189,403.152 180.138,419.945 177.565,421.603C167.376,428.171 168.603,435.067 168.643,449.5C168.722,477.989 167.648,479.875 174.393,484.658C175.796,485.652 242.857,523.254 245.344,524.774C258.903,533.064 269.675,534.818 272.63,550.477C274.391,559.808 269.471,571.003 264.119,575.031C261.081,577.318 246.852,586.962 242.619,588.775C229.477,594.405 219.764,585.363 208.275,578.902C199.24,573.822 188.249,567.128 180.395,562.677C171.64,557.715 167.997,554.619 164.378,556.244C159.957,558.229 156.074,561.102 147.495,556.509C138.149,551.505 136.463,534.047 150.592,528.74C153.331,527.711 164.127,525.796 169.794,537.375C171.365,540.583 174.145,540.95 180.359,544.754C184.77,547.453 198.96,555.438 200.585,556.353C214.142,563.981 230.414,574.476 233.49,574.664C235.142,574.765 236.677,574.859 251.624,564.698C251.669,564.667 257.266,561.899 257.38,555.498C257.518,547.706 249.906,545.524 244.622,542.287C238.165,538.332 166.287,498.397 163.209,495.855C151.504,486.192 153.107,473.997 153.111,468.498C153.14,430.235 152.466,429.872 156.403,421.451C160.583,412.512 168.075,409.404 182.287,400.172C185.395,398.153 185.443,398.239 221.318,375.218C235.283,366.257 235.343,365.784 244.496,364.935Z" style="fill:rgb(0,143,229);"/>
            </g>
        </g>
        <g transform="matrix(1,0,0,1,-140.232301,-364.934684)">
            <g transform="matrix(0.809251,0,0,0.823476,99.091788,89.048221)">
                <path d="M238.493,639.069C224.755,638.953 225.574,635.605 180.293,609.854C176.864,607.904 167.528,602.286 166.422,601.621C157.159,596.046 164.515,581.475 175.736,589.144C177.669,590.466 212.917,610.884 224.322,617.803C233.765,623.532 236.436,626.077 246.36,619.282C254.505,613.706 294.825,589.234 298.422,585.428C304.123,579.394 303.067,573.202 303.109,545.499C303.133,529.969 303.323,528.141 291.434,521.619C289.409,520.508 222.377,482.589 220.446,481.594C209.408,475.911 203.041,469.681 202.628,456.494C202.481,451.794 203.776,441.814 212.571,435.597C215.712,433.377 237.191,419.577 238.695,418.908C252.269,412.876 255.983,418.335 280.25,431.952C289.466,437.124 289.172,437.572 298.383,442.705C303.199,445.389 303.415,445.536 317.499,445.311C324.923,445.192 324.814,444.325 327.783,441.836C340.991,430.765 358.701,444.922 352.66,459.571C348.86,468.788 334.862,473.471 326.003,462.914C323.478,459.906 321.561,461.26 305.492,460.901C296.65,460.704 296.87,459.383 271.747,445.07C250.93,433.21 249.914,430.458 244.571,433.618C239.942,436.357 238.634,437.787 226.814,444.995C223.916,446.762 217.633,449.789 218.97,458.453C219.792,463.78 222.59,465.167 236.305,472.846C256.444,484.122 289.078,502.62 293.662,505.218C304.598,511.417 318.359,515.492 318.526,538.5C318.802,576.592 318.133,579.031 317.203,582.421C312.822,598.399 300.757,602.779 290.605,609.662C288.492,611.094 288.447,610.98 263.689,626.795C247.231,637.308 246.738,638.24 238.493,639.069Z" style="fill:rgb(0,165,208);"/>
            </g>
        </g>
        <g transform="matrix(1,0,0,1,-140.232301,-364.934684)">
            <g transform="matrix(0.809251,0,0,0.823476,99.091788,89.048221)">
                <path d="M357.947,571.5C357.698,597.253 344.644,601.696 328.672,612.767C322.752,616.871 318.419,620.981 313.211,616.897C310.766,614.979 307.186,608.78 314.572,603.605C323.301,597.489 337.512,589.333 340.011,584.24C343.205,577.731 342.605,577.022 342.638,532.5C342.65,516.899 341.817,513.755 346.685,510.831C348.273,509.877 357.86,507.482 358.035,519.494C358.096,523.654 357.913,523.649 357.947,571.5Z" style="fill:rgb(0,198,168);"/>
            </g>
        </g>
        <g transform="matrix(1,0,0,1,-140.232301,-364.934684)">
            <path d="M442.499,545.962C438.218,546.055 437.172,545.792 437.195,548.511C437.213,550.586 437.404,573.156 437.198,574.456C437.05,575.391 436.879,576.466 425.457,575.864C423.191,575.745 423.531,573.77 423.536,572.5C423.552,568.735 423.561,500.569 423.561,500.5C423.546,497.134 423.153,495.905 426.498,495.916C458.108,496.02 458.197,495.47 464.593,497.081C484.777,502.166 485.196,525.73 478.178,535.268C472.505,542.978 467.18,542.372 467.143,544.497C467.125,545.519 475.275,558.925 481.908,571.282C482.998,573.314 485.784,575.932 481.512,575.897C472.881,575.827 470.382,576.06 469.58,575.394C468.268,574.307 456.274,551.681 453.65,547.403C452.37,545.317 449.926,546.135 442.499,545.962ZM455.489,507.918C438.806,507.8 438.72,507.908 438.312,508.042C436.968,508.486 437.204,509.028 437.205,524.5C437.206,532.5 436.493,534.359 439.499,534.374C459.47,534.476 459.444,533.704 461.607,532.724C471.059,528.443 473.147,509.819 455.489,507.918Z" style="fill:rgb(24,24,24);"/>
        </g>
        <g transform="matrix(1,0,0,1,-140.232301,-364.934684)">
            <path d="M526.51,418.058C538.059,418.801 540.826,426.639 541.676,427.225C542.553,427.83 543.326,426.549 543.405,426.418C546.214,421.758 556.613,414.833 568.57,419.316C573.422,421.135 579.581,426.937 580.092,436.534C580.25,439.497 580.175,465.093 580.196,472.498C580.197,472.836 580.206,476.4 579.654,476.688C579.614,476.709 579.646,477.169 569.507,477.101C566.339,477.08 567.254,475.651 567.253,472.502C567.247,437.15 567.712,436.538 564.276,432.702C559.275,427.12 544.192,427.364 544.037,442.494C544.013,444.814 543.811,464.553 544.039,471.5C544.186,475.986 543.887,476.297 543.603,476.592C543.022,477.194 541.595,477.087 533.497,477.09C530.286,477.091 531.077,474.955 531.073,467.5C531.057,438.307 531.14,438.213 530.112,435.66C525.959,425.342 508.694,428.165 507.872,440.521C507.581,444.901 508.207,475.623 507.498,476.498C506.82,477.334 495.572,477.625 494.895,476.277C494.354,475.2 494.637,425.885 494.662,421.503C494.675,419.233 495.219,419.115 497.492,419.098C506.53,419.03 507.792,418.681 507.83,421.497C507.85,422.915 507.369,425.276 507.523,425.489C508.665,427.071 510.546,423.176 510.879,422.891C516.392,418.176 521.484,418.076 522.49,418.056C524.536,418.016 524.499,418.038 526.51,418.058Z" style="fill:rgb(24,24,24);"/>
        </g>
        <g transform="matrix(1,0,0,1,-140.232301,-364.934684)">
            <path d="M604.052,548.502C604.047,546.092 604.03,546.128 604.065,544.492C604.243,535.967 607.807,528.301 612.793,523.825C624.056,513.712 653.252,512.853 658.697,539.454C659.451,543.14 659.253,552.963 658.632,555.535C653.644,576.198 638.122,577.05 630.496,576.943C609.237,576.643 603.789,558.608 604.052,548.502ZM631.5,528.927C629.396,529.053 628.002,529.045 625.365,530.206C612.421,535.903 613.604,569.926 635.435,565.199C648.704,562.326 648.257,540.663 642.283,533.685C637.587,528.201 631.688,528.938 631.5,528.927Z" style="fill:rgb(24,24,24);"/>
        </g>
        <g transform="matrix(1,0,0,1,-140.232301,-364.934684)">
            <path d="M451.505,406.938C433.029,408.5 437.132,421.743 442.462,424.564C457.215,432.372 486.505,427.364 484.015,457.474C483.472,464.04 478.933,474.029 465.576,476.959C443.318,481.843 424.51,472.815 422.227,455.54C421.699,451.549 423.494,452.081 427.501,452.081C433.313,452.082 434.814,451.4 435.655,454.456C440.1,470.603 462.058,466.588 466.423,463.392C472.111,459.228 474.847,448.415 461.644,444.038C447.732,439.427 422.611,439.906 424.986,414.536C426.19,401.666 440.298,395.265 449.488,395.102C451,395.075 476.004,392.306 481.649,412.454C483.012,417.322 480.903,417.417 480.494,417.436C479.696,417.472 474.207,417.72 470.51,417.365C467.625,417.088 468.544,411.189 461.548,408.394C456.768,406.484 456.642,407.078 451.505,406.938Z" style="fill:rgb(24,24,24);"/>
        </g>
        <g transform="matrix(1,0,0,1,-140.232301,-364.934684)">
            <path d="M597.501,436.941C594.159,437.019 590.451,437.813 592.909,431.659C593.565,430.019 597.333,420.589 610.454,418.262C612.131,417.964 620.425,417.794 622.549,418.276C642.231,422.748 640.08,435.747 640.074,450.5C640.064,475.966 640.106,476.089 639.612,476.601C638.978,477.258 636.774,477.088 629.494,477.112C625.593,477.125 627.436,475.064 626.982,471.179C626.969,471.07 627.244,470.564 626.492,470.523C624.974,470.439 625.619,471.577 622.298,474.238C612.075,482.429 585.68,478.816 590.113,455.437C591.01,450.707 594.841,447.818 595.404,447.372C603.873,440.677 623.328,443.903 626.121,440.2C628.301,437.311 626.948,427.182 614.521,427.943C613.308,428.018 607.066,429.03 605.25,434.404C604.139,437.692 603.039,436.92 597.501,436.941ZM612.5,468.074C614.397,467.957 614.386,467.961 614.549,467.948C620.223,467.469 624.595,462.887 626.033,459.323C627.094,456.692 627.132,452.201 626.764,451.338C626.29,450.226 625.82,450.81 612.535,451.865C598.433,452.985 602.003,464.381 606.402,466.675C609.216,468.143 609.302,467.821 612.5,468.074Z" style="fill:rgb(24,24,24);"/>
        </g>
        <g transform="matrix(1,0,0,1,-140.232301,-364.934684)">
            <path d="M857.503,576.94C852.179,577.089 849.592,577.1 844.581,575.304C824.97,568.275 824.389,539.811 834.13,527.215C846.046,511.807 870.551,515.152 878.121,529.705C882.826,538.752 882.052,549.448 881.19,550.108C879.834,551.147 843.144,549.952 841.719,550.828C839.912,551.94 842.273,564.427 852.559,566.153C866.559,568.503 867.114,559.726 870.503,559.611C880.216,559.281 880.426,559.574 880.737,560.334C881.721,562.733 876.098,576.293 857.503,576.94ZM864.499,541.052C867.721,540.927 869.463,541.582 868.749,538.441C865.801,525.469 851.468,525.621 845.565,531.564C842.854,534.294 839.826,540.666 842.558,541.059C844.295,541.308 844.298,541.051 864.499,541.052Z" style="fill:rgb(24,24,24);"/>
        </g>
        <g transform="matrix(1,0,0,1,-140.232301,-364.934684)">
            <path d="M514.494,576.939C510.402,576.744 502.884,576.225 495.715,568.312C484.959,556.441 484.296,519.205 515.473,517.16C527.219,516.39 534.098,523.494 535.278,524.712C544.68,534.422 543.041,549.504 542.203,550.138C541.05,551.011 506.471,550.279 503.511,550.579C501.468,550.787 502.019,553.506 503.338,557.565C506.705,567.928 523.092,569.882 529.042,561.19C530.242,559.435 530.61,559.564 539.499,559.588C546.085,559.605 537.074,570.191 534.181,572.051C525.491,577.635 517.888,577.036 514.494,576.939ZM510.499,541.048C511.86,541.049 519.186,541.053 527.506,540.978C529.754,540.957 530.308,540.613 529.836,538.425C526.734,524.051 506.835,524.52 502.882,537.615C501.279,542.923 504.944,540.924 510.499,541.048Z" style="fill:rgb(24,24,24);"/>
        </g>
        <g transform="matrix(1,0,0,1,-140.232301,-364.934684)">
            <path d="M689.502,576.916C684.16,576.634 677.9,575.758 672.288,568.655C667.274,562.31 668.941,554.537 668.683,521.498C668.676,520.623 668.258,518.325 670.456,518.179C670.674,518.164 678.926,518.151 679.509,518.163C682.518,518.226 681.886,519.795 681.896,530.499C681.92,557.218 681.291,557.951 685.201,561.804C691.425,567.939 705.794,565.376 706.221,550.489C706.476,541.611 705.757,519.724 706.72,518.718C707.503,517.9 718.386,517.773 719.128,518.792C719.699,519.577 719.265,519.711 719.43,573.501C719.44,576.885 717.897,575.9 714.499,575.899C710.588,575.898 706.77,576.34 706.342,574.542C706.306,574.391 706.262,572.128 706.314,571.503C706.538,568.841 706.652,568.786 706.426,568.566C704.642,566.827 705.602,570.361 699.771,573.955C695.338,576.688 690.356,576.882 689.502,576.916Z" style="fill:rgb(24,24,24);"/>
        </g>
        <g transform="matrix(1,0,0,1,-140.232301,-364.934684)">
            <path d="M591.501,534.94C584.635,535.145 583.686,534.853 583.152,533.645C582.69,532.599 582.007,529.104 576.505,527.485C566.894,524.658 559.362,533.392 566.692,538.182C572.978,542.291 601.276,539.39 596.055,563.406C593.299,576.084 572.384,580.967 559.33,573.839C558.255,573.252 551.044,569.315 550.227,561.53C549.864,558.069 554.446,559.179 559.498,559.03C563.509,558.912 561.887,561.414 564.798,564.182C570.575,569.677 585.739,567.357 584.026,558.561C581.991,548.121 555.562,556.197 551.362,537.535C550.087,531.869 553.38,522.764 562.41,519.269C570.474,516.148 584.806,515.514 592.271,525.663C594.427,528.593 596.669,534.56 593.577,534.911C592.889,534.989 592.188,534.862 591.501,534.94Z" style="fill:rgb(24,24,24);"/>
        </g>
        <g transform="matrix(1,0,0,1,-140.232301,-364.934684)">
            <path d="M793.508,528.939C782.061,530.425 780.353,538.137 780.922,551.481C781.197,557.925 785.645,564.403 791.55,565.085C806.481,566.808 806.784,557.331 808.479,556.47C808.731,556.342 808.725,556.057 818.505,556.113C821.192,556.128 821.426,557.299 819.77,561.6C812.201,581.255 785.941,579.577 776.769,571.204C774.82,569.425 767.163,563.025 767.447,545.498C767.889,518.323 793.182,513.015 807.69,520.072C809.082,520.749 817.408,524.8 820.632,534.458C821.326,536.538 820.682,536.911 818.512,536.929C808.415,537.01 808.063,537.016 806.913,535.264C806.826,535.131 805.475,531.234 799.53,529.416C797.518,528.801 793.73,528.944 793.508,528.939Z" style="fill:rgb(24,24,24);"/>
        </g>
        <g transform="matrix(1,0,0,1,-140.232301,-364.934684)">
            <path d="M718.497,477.948C717.611,477.92 711.636,477.73 707.782,475.099C704.555,472.896 703.215,469.856 702.973,469.304C699.65,461.759 702.356,432.545 701.148,430.714C699.844,428.738 692.142,431.324 691.576,428.482C691.465,427.926 691.514,420.624 691.535,420.507C691.977,417.936 698.667,419.665 700.671,418.768C702.006,418.17 701.147,407.56 701.359,404.48C701.369,404.322 701.434,403.378 702.596,402.941C702.695,402.904 712.911,402.857 713.356,402.98C715.91,403.685 712.66,417.772 715.612,419.007C715.932,419.142 725.751,419.061 726.54,419.094C728.646,419.182 728.588,420.527 728.587,421.5C728.581,428.877 728.476,428.895 728.201,429.259C727.204,430.576 717.099,429.42 715.311,430.13C714.04,430.635 714.372,434.126 714.362,438.5C714.316,458.242 713.482,464.906 719.578,466.128C725.66,467.348 729.332,464.463 729.326,468.501C729.315,474.945 729.392,474.914 729.306,475.464C728.889,478.139 719.384,477.964 718.497,477.948Z" style="fill:rgb(24,24,24);"/>
        </g>
        <g transform="matrix(1,0,0,1,-140.232301,-364.934684)">
            <path d="M666.097,427.058C667.713,423.49 669.937,419.935 680.522,418.662C686.439,417.95 686.792,419.907 686.886,420.427C686.918,420.606 686.991,430.198 686.858,430.647C686.125,433.123 679.071,428.256 671.211,434.109C663.904,439.552 665.159,443.934 665.137,462.5C665.121,476.184 665.212,476.381 664.655,476.678C663.331,477.383 653.135,477.325 652.427,476.565C651.542,475.614 652.324,469.988 651.965,447.502C651.939,445.822 651.758,434.542 652.032,426.501C652.188,421.928 650.819,419.132 654.491,419.092C663.716,418.989 664.767,418.871 664.921,421.478C665.017,423.088 664.459,426.745 664.98,427.093C665.113,427.182 665.245,426.875 665.405,426.87C665.802,426.857 665.731,427.069 666.097,427.058Z" style="fill:rgb(24,24,24);"/>
        </g>
        <g transform="matrix(1,0,0,1,-140.232301,-364.934684)">
            <path d="M764.975,524.499C765.09,529.436 765.529,531.078 762.468,530.824C761.086,530.709 755.225,529.353 749.395,534.376C743.668,539.31 744.687,543.269 744.619,565.5C744.607,569.52 744.66,569.487 744.663,573.499C744.664,574.531 744.708,575.825 742.53,575.89C732.491,576.19 732.281,575.96 731.696,575.319C731.298,574.883 731.277,574.772 731.279,527.5C731.28,520.95 730.604,518.275 733.479,518.175C743.989,517.81 744.206,518.67 744.421,519.525C745.08,522.139 743.34,526.828 745.491,526.475C746.984,526.23 744.952,522.988 752.598,519.726C756.268,518.161 764.293,516.883 764.924,519.378C764.986,519.625 764.976,524.09 764.975,524.499Z" style="fill:rgb(24,24,24);"/>
        </g>
        <g transform="matrix(1,0,0,1,-140.232301,-364.934684)">
            <path d="M653.492,636.487C641.113,645.247 633.454,626.366 641.043,617.133C641.59,616.468 645.259,612.005 651.481,614.543C653.438,615.341 652.996,616.248 654.482,616.301C655.39,616.333 655.117,615.855 655.134,611.502C655.143,609.306 654.606,605.552 656.401,605.122C659.36,604.412 659.818,606.126 659.895,606.414C660.097,607.172 659.9,618.945 660.013,625.499C660.045,627.35 659.932,636.47 659.923,636.547C659.892,636.845 659.689,638.731 656.535,638.139C656.128,638.063 656.079,637.376 655.671,637.3C655.522,637.014 655.403,636.886 655.253,636.599C655.196,636.49 654.653,635.45 653.849,635.969C653.672,636.082 653.668,636.373 653.492,636.487ZM643.068,625.482C643.094,626.044 643.306,630.657 644.739,632.305C649.707,638.02 657.515,631.698 654.665,622.446C652.768,616.288 643.909,616.614 643.128,624.457C643.094,624.797 643.102,625.141 643.068,625.482Z" style="fill:rgb(1,198,195);"/>
        </g>
        <g transform="matrix(1,0,0,1,-140.232301,-364.934684)">
            <path d="M681.501,638.175C679.981,638.053 679.541,638.701 678.933,637.312C678.667,636.702 678.741,632.044 678.743,631.503C678.848,607.528 678.413,606.353 679.523,605.54C679.925,605.246 690.952,605.026 693.455,605.691C694.495,605.968 702.349,608.055 701.468,616.497C700.264,628.045 686.403,625.37 684.362,626.326C683.27,626.838 683.875,634.421 683.729,636.522C683.717,636.687 683.646,637.711 682.447,638.142C682.15,638.248 681.798,638.069 681.501,638.175ZM683.773,614.501C683.77,617.132 683.461,620.621 684.546,621.416C684.959,621.718 693.83,622.437 695.615,618.562C696.431,616.789 698.155,609.764 688.501,609.787C688.195,609.788 685.028,609.796 684.679,609.981C683.136,610.801 683.914,611.267 683.773,614.501Z" style="fill:rgb(0,204,189);"/>
        </g>
        <g transform="matrix(1,0,0,1,-140.232301,-364.934684)">
            <path d="M485.486,638.118C483.946,638.047 483.553,638.678 482.84,637.317C482.562,636.786 482.691,636.738 482.62,609.5C482.617,608.32 481.984,605.404 484.492,605.311C497.797,604.818 500.329,606.782 501.409,607.619C507.944,612.686 505.863,625.083 495.531,625.836C489.126,626.303 487.359,625.009 487.339,628.5C487.336,628.98 487.342,628.97 487.326,634.501C487.326,634.726 487.319,636.946 487.139,637.314C486.762,638.085 486.548,637.817 485.486,638.118ZM499.957,616.562C499.951,616.207 500.08,615.858 500.075,615.504C499.952,608.121 488.354,609.38 487.622,610.566C487.114,611.39 487.418,620.366 487.454,620.511C487.999,622.677 495.38,621.578 496.673,620.877C499.798,619.182 499.37,618.514 499.957,616.562Z" style="fill:rgb(1,195,219);"/>
        </g>
        <g transform="matrix(1,0,0,1,-140.232301,-364.934684)">
            <path d="M508.874,627.481C508.862,625.416 508.854,625.455 509.107,623.444C510.798,609.994 529.882,610.621 530.869,624.475C531.892,638.822 518.717,640.972 513.377,636.66C509.356,633.412 509.221,630.012 508.874,627.481ZM525.886,624.462C525.864,624.346 525.594,618.599 520.453,617.937C515.14,617.252 513.983,622.879 513.843,623.559C511.71,633.937 521.362,637.572 524.653,631.59C526.539,628.161 525.87,625.08 525.886,624.462Z" style="fill:rgb(1,196,219);"/>
        </g>
        <g transform="matrix(1,0,0,1,-140.232301,-364.934684)">
            <path d="M830.479,613.889C844.042,615.864 841.976,631.802 836.429,636.413C829.445,642.219 816.017,637.035 819.111,622.421C819.94,618.507 822.122,616.704 822.434,616.425C825.788,613.435 829.844,613.889 830.479,613.889ZM830.561,618.081C830.545,618.082 823.839,616.964 823.545,625.501C823.338,631.496 825.804,633.894 828.531,634.346C837.343,635.808 837.682,620.353 831.574,618.309C831.246,618.199 830.889,618.191 830.561,618.081Z" style="fill:rgb(0,223,143);"/>
        </g>
        <g transform="matrix(1,0,0,1,-140.232301,-364.934684)">
            <path d="M446.498,638.141C446.182,638.068 445.842,638.197 445.526,638.124C442.365,637.4 443.094,630.643 440.61,630.141C439.657,629.948 434.394,630.054 431.499,630.024C425.513,629.962 430.23,638.265 423.508,638.117C420.607,638.053 422.651,634.589 423.662,631.554C424.486,629.08 431.764,607.784 432.468,606.481C433.104,605.306 437.349,603.874 438.615,607.459C447.437,632.442 447.484,632.409 448.208,634.594C448.295,634.854 449.204,637.596 448.313,638.018C448.182,638.08 448.18,638.027 446.498,638.141ZM435.436,612.664C435.104,612.885 434.682,612.356 434.344,613.393C430.658,624.692 430.659,624.945 431.369,625.664C431.837,626.139 431.946,625.802 437.499,626.023C441.988,626.202 437.925,621.595 436.197,613.608L435.436,612.664Z" style="fill:rgb(2,192,220);"/>
        </g>
        <g transform="matrix(1,0,0,1,-140.232301,-364.934684)">
            <path d="M558.455,630.824C558.778,630.704 559.1,630.585 559.423,630.465C560.614,623.388 560.766,623.444 562.357,616.469C562.669,615.102 562.883,614.33 564.465,614.137C567.195,613.805 567.356,614.881 566.658,617.55C566.261,619.07 562.342,634.058 561.557,636.518C560.704,639.193 556.828,638.055 556.38,637.623C555.715,636.982 552.456,620.205 550.406,620.342C549.713,620.388 545.897,636.359 545.799,636.605C544.896,638.873 540.663,638.778 540.007,636.653C539.558,635.204 535.656,620.005 535.284,618.556C534.534,615.636 533.481,614.164 536.493,614.135C538.808,614.113 539.05,615.043 539.638,617.465C542.86,630.732 542.986,632.572 543.439,631.341C544.148,629.414 544.671,626.169 545.674,623.556C548.521,616.138 547.825,614.303 550.492,614.132C553.985,613.908 553.761,615.15 555.644,621.458C558.173,629.931 557.587,631.149 557.869,631.293C558.091,631.407 558.232,630.71 558.455,630.824Z" style="fill:rgb(2,196,214);"/>
        </g>
        <g transform="matrix(1,0,0,1,-140.232301,-364.934684)">
            <path d="M612.81,628.465C612.787,627.842 611.921,622.404 614.983,617.852C615.631,616.888 617.992,614.493 621.556,613.911C633.205,612.009 635.305,625.83 633.314,627.241C632.853,627.568 628.886,627.569 628.5,627.569C620.206,627.573 620.22,627.51 619.5,627.512C613.825,627.529 621.092,638.901 628.218,633.159C630.557,631.274 635.418,631.736 632.225,635.242C628.732,639.077 615.316,643.012 612.81,628.465ZM626.505,624.034C626.582,624.016 631.011,624.398 627.5,619.5C625.038,616.065 618.293,617.972 617.653,622.522C617.376,624.496 621.34,623.909 626.505,624.034Z" style="fill:rgb(1,200,205);"/>
        </g>
        <g transform="matrix(1,0,0,1,-140.232301,-364.934684)">
            <path d="M569.921,625.505C569.992,625.026 570.329,613.524 581.487,613.827C591.554,614.101 592.291,626.372 590.447,627.399C589.808,627.755 577.9,627.467 576.501,627.522C573.34,627.644 575.272,634.131 580.474,634.708C583.408,635.034 583.371,634.572 585.783,632.842C587.526,631.591 591.773,631.857 590.155,634.288C586.401,639.926 570.232,643.149 569.921,625.505ZM577.492,624.029C583.99,623.931 583.984,623.98 584.548,623.948C587.864,623.764 585.476,619.353 583.556,618.396C577.49,615.374 572.938,623.201 576.513,624.047C576.831,624.123 577.174,623.953 577.492,624.029Z" style="fill:rgb(1,197,210);"/>
        </g>
        <g transform="matrix(1,0,0,1,-140.232301,-364.934684)">
            <path d="M731.548,613.883C735.505,613.682 737.779,613.751 740.876,617.162C744.551,621.21 743.495,626.79 743.147,627.13C742.239,628.017 730.718,627.349 728.501,627.508C726.065,627.683 727.615,633.268 731.521,634.436C736.587,635.95 737.277,631.695 741.54,632.207C744.733,632.59 741.274,637.997 734.514,638.643C722.282,639.812 720.395,625.969 723.771,619.635C726.388,614.724 730.03,614.288 731.548,613.883ZM733.498,624.033C737.357,623.933 739.255,624.248 738.353,621.551C736.214,615.151 727.646,617.959 727.458,622.496C727.385,624.275 728.717,623.965 733.498,624.033Z" style="fill:rgb(0,209,182);"/>
        </g>
        <g transform="matrix(1,0,0,1,-140.232301,-364.934684)">
            <path d="M845.96,616.494C846.191,615.68 845.592,614.037 848.516,614.16C851.411,614.282 850.418,615.827 850.792,616.329C851.285,616.989 852.536,615.868 852.651,615.764C854.431,614.169 860.974,611.529 864.841,618.327C865.521,619.523 866.321,620.93 866.002,635.498C865.904,639.984 861.597,637.554 861.536,637.474C860.925,636.678 861.336,626.116 861.16,623.523C860.736,617.29 855.233,617.918 853.675,618.83C848.928,621.61 851.244,629.714 850.763,636.527C850.591,638.957 847.81,638.211 847.531,638.136C845.168,637.503 846.313,636.403 845.96,616.494Z" style="fill:rgb(0,225,136);"/>
        </g>
        <g transform="matrix(1,0,0,1,-140.232301,-364.934684)">
            <path d="M792.461,634.824C792.929,634.818 797.141,634.756 797.888,632.661C800.326,625.828 783.292,630.303 784.215,620.471C785.179,610.217 803.982,613.36 801.731,619.668C801.601,620.033 799.037,621.148 796.883,619.122C792.419,614.923 785.353,620.492 791.582,623.304C792.923,623.91 804.382,624.391 802.79,632.563C801.1,641.238 784.144,639.543 783.685,633.474C783.564,631.884 786.566,631.161 788.401,632.607C790.257,634.07 790.168,634.223 792.461,634.824Z" style="fill:rgb(0,221,155);"/>
        </g>
        <g transform="matrix(1,0,0,1,-140.232301,-364.934684)">
            <path d="M747.903,624.532C748.349,621.988 748.376,618.625 752.555,615.579C755.877,613.156 760.857,614.018 761.577,614.143C766.298,614.961 771.387,621.721 766.504,621.812C762.689,621.882 763.386,619.179 760.566,618.306C751.183,615.402 750.055,632.698 757.563,634.238C762.448,635.24 762.899,631.447 765.528,630.961C773.118,629.559 765.404,641.286 755.562,638.281C746.793,635.604 747.867,626.397 747.903,624.532Z" style="fill:rgb(0,214,169);"/>
        </g>
        <g transform="matrix(1,0,0,1,-140.232301,-364.934684)">
            <path d="M458.202,614.502C458.201,637.028 458.331,637.296 457.641,637.66C455.969,638.54 453.767,638.278 453.671,636.488C453.667,636.405 453.655,606.712 453.686,606.528C453.727,606.28 453.97,604.822 456.535,605.179C458.709,605.482 458.209,608.404 458.202,614.502Z" style="fill:rgb(1,200,228);"/>
        </g>
        <g transform="matrix(1,0,0,1,-140.232301,-364.934684)">
            <path d="M600.923,616.401C601.787,616.816 601.893,617.311 602.55,616.586C605.42,613.418 610.323,612.922 610.189,616.49C610.109,618.633 608.452,618.414 607.503,618.534C600.086,619.472 601.366,624.787 601.361,633.499C601.36,636.911 601.912,638.359 598.517,638.135C596.207,637.983 596.725,635.546 596.712,627.5C596.693,615.716 596.15,614.362 598.476,614.149C600.536,613.961 600.882,614.306 600.923,616.401Z" style="fill:rgb(0,199,210);"/>
        </g>
        <g transform="matrix(1,0,0,1,-140.232301,-364.934684)">
            <path d="M708.51,638.127C707.407,637.808 707.21,638.054 706.849,637.332C706.212,636.055 706.598,635.963 706.64,619.5C706.651,615.596 705.674,613.51 709.552,614.175C711.725,614.547 710.266,616.476 711.528,617.081C712.24,617.422 713.349,615.612 713.49,615.487C714.843,614.299 720.629,612.527 720.106,616.48C719.767,619.043 718.448,618.309 716.521,618.618C709.209,619.791 711.651,628.163 711.263,636.485C711.167,638.548 708.647,638.119 708.51,638.127Z" style="fill:rgb(0,209,189);"/>
        </g>
        <g transform="matrix(1,0,0,1,-140.232301,-364.934684)">
            <path d="M810.494,638.145C809.766,637.943 807.803,638.909 807.992,634.503C808.574,620.962 806.875,614.745 809.445,614.205C813.45,613.364 812.878,615.389 812.871,619.503C812.84,636.803 813.312,637.572 811.46,638.121C811.151,638.213 810.802,638.054 810.494,638.145Z" style="fill:rgb(0,220,143);"/>
        </g>
        <g transform="matrix(1,0,0,1,-140.232301,-364.934684)">
            <path d="M773.79,616.5C773.805,616.452 773.51,614.386 775.468,614.126C777.818,613.814 778.314,614.145 778.36,616.5C778.394,618.167 778.751,636.167 778.182,637.351C777.633,638.497 774.92,638.151 774.667,638.018C773.457,637.38 773.814,636.715 773.79,616.5Z" style="fill:rgb(0,225,163);"/>
        </g>
        <g transform="matrix(1,0,0,1,-140.232301,-364.934684)">
            <path d="M463.862,625.511C464.121,624.912 463.894,624.87 464.144,624.292C464.168,624.237 464.302,623.926 464.633,623.73C465.781,623.048 473.71,623.476 474.498,623.519C476.802,623.644 476.733,627.411 474.504,627.552C469.966,627.838 466.213,627.618 465.493,627.575C464.352,627.509 463.97,626.562 463.912,626.417C463.798,626.137 463.975,625.792 463.862,625.511Z" style="fill:rgb(1,201,229);"/>
        </g>
        <g transform="matrix(1,0,0,1,-140.232301,-364.934684)">
            <path d="M776.577,605.134C776.874,605.282 777.214,605.333 777.511,605.482C780.368,606.91 778.311,612.486 774.521,610.467C773.593,609.973 773.014,608.465 773.165,607.445C773.514,605.103 774.257,605.535 776.577,605.134Z" style="fill:rgb(1,217,163);"/>
        </g>
        <g transform="matrix(1,0,0,1,-140.232301,-364.934684)">
            <path d="M810.517,605.055C812.411,605.799 813.006,605.507 813.204,607.533C813.683,612.431 805.894,611.177 807.843,606.667C808.51,605.122 808.924,605.569 810.517,605.055Z" style="fill:rgb(1,223,152);"/>
        </g>
    </g>
</svg>
