<?xml version="1.0" encoding="UTF-8" standalone="no"?>
<!DOCTYPE svg PUBLIC "-//W3C//DTD SVG 1.1//EN" "http://www.w3.org/Graphics/SVG/1.1/DTD/svg11.dtd">
<svg width="100%" height="100%" viewBox="0 0 218 275" version="1.1" xmlns="http://www.w3.org/2000/svg" xmlns:xlink="http://www.w3.org/1999/xlink" xml:space="preserve" xmlns:serif="http://www.serif.com/" style="fill-rule:evenodd;clip-rule:evenodd;stroke-linejoin:round;stroke-miterlimit:2;">
    <g transform="matrix(1,0,0,1,-140.232301,-364.934684)">
        <g>
            <path d="M244.496,364.935C254.724,365.66 254.6,366.659 272.706,377.139C318.874,403.863 324.033,406.869 325.37,408.601C329.509,413.96 325.43,425.327 313.726,419.097C311.449,417.885 250.829,382.165 248.594,381.262C243.151,379.063 241.713,381.082 228.784,388.964C227.309,389.863 219.669,395.043 209.79,400.986C206.189,403.152 180.138,419.945 177.565,421.603C167.376,428.171 168.603,435.067 168.643,449.5C168.722,477.989 167.648,479.875 174.393,484.658C175.796,485.652 242.857,523.254 245.344,524.774C258.903,533.064 269.675,534.818 272.63,550.477C274.391,559.808 269.471,571.003 264.119,575.031C261.081,577.318 246.852,586.962 242.619,588.775C229.477,594.405 219.764,585.363 208.275,578.902C199.24,573.822 188.249,567.128 180.395,562.677C171.64,557.715 167.997,554.619 164.378,556.244C159.957,558.229 156.074,561.102 147.495,556.509C138.149,551.505 136.463,534.047 150.592,528.74C153.331,527.711 164.127,525.796 169.794,537.375C171.365,540.583 174.145,540.95 180.359,544.754C184.77,547.453 198.96,555.438 200.585,556.353C214.142,563.981 230.414,574.476 233.49,574.664C235.142,574.765 236.677,574.859 251.624,564.698C251.669,564.667 257.266,561.899 257.38,555.498C257.518,547.706 249.906,545.524 244.622,542.287C238.165,538.332 166.287,498.397 163.209,495.855C151.504,486.192 153.107,473.997 153.111,468.498C153.14,430.235 152.466,429.872 156.403,421.451C160.583,412.512 168.075,409.404 182.287,400.172C185.395,398.153 185.443,398.239 221.318,375.218C235.283,366.257 235.343,365.784 244.496,364.935Z" style="fill:rgb(0,143,229);"/>
            <path d="M238.493,639.069C224.755,638.953 225.574,635.605 180.293,609.854C176.864,607.904 167.528,602.286 166.422,601.621C157.159,596.046 164.515,581.475 175.736,589.144C177.669,590.466 212.917,610.884 224.322,617.803C233.765,623.532 236.436,626.077 246.36,619.282C254.505,613.706 294.825,589.234 298.422,585.428C304.123,579.394 303.067,573.202 303.109,545.499C303.133,529.969 303.323,528.141 291.434,521.619C289.409,520.508 222.377,482.589 220.446,481.594C209.408,475.911 203.041,469.681 202.628,456.494C202.481,451.794 203.776,441.814 212.571,435.597C215.712,433.377 237.191,419.577 238.695,418.908C252.269,412.876 255.983,418.335 280.25,431.952C289.466,437.124 289.172,437.572 298.383,442.705C303.199,445.389 303.415,445.536 317.499,445.311C324.923,445.192 324.814,444.325 327.783,441.836C340.991,430.765 358.701,444.922 352.66,459.571C348.86,468.788 334.862,473.471 326.003,462.914C323.478,459.906 321.561,461.26 305.492,460.901C296.65,460.704 296.87,459.383 271.747,445.07C250.93,433.21 249.914,430.458 244.571,433.618C239.942,436.357 238.634,437.787 226.814,444.995C223.916,446.762 217.633,449.789 218.97,458.453C219.792,463.78 222.59,465.167 236.305,472.846C256.444,484.122 289.078,502.62 293.662,505.218C304.598,511.417 318.359,515.492 318.526,538.5C318.802,576.592 318.133,579.031 317.203,582.421C312.822,598.399 300.757,602.779 290.605,609.662C288.492,611.094 288.447,610.98 263.689,626.795C247.231,637.308 246.738,638.24 238.493,639.069Z" style="fill:rgb(0,165,208);"/>
            <path d="M357.947,571.5C357.698,597.253 344.644,601.696 328.672,612.767C322.752,616.871 318.419,620.981 313.211,616.897C310.766,614.979 307.186,608.78 314.572,603.605C323.301,597.489 337.512,589.333 340.011,584.24C343.205,577.731 342.605,577.022 342.638,532.5C342.65,516.899 341.817,513.755 346.685,510.831C348.273,509.877 357.86,507.482 358.035,519.494C358.096,523.654 357.913,523.649 357.947,571.5Z" style="fill:rgb(0,198,168);"/>
        </g>
    </g>
</svg>
